<?xml version="1.0" standalone="no"?>
<!DOCTYPE svg PUBLIC "-//W3C//DTD SVG 20010904//EN"
 "http://www.w3.org/TR/2001/REC-SVG-20010904/DTD/svg10.dtd">
<svg version="1.0" xmlns="http://www.w3.org/2000/svg"
 width="22.000000pt" height="22.000000pt" viewBox="0 0 22.000000 22.000000"
 preserveAspectRatio="xMidYMid meet">
<metadata>
Created by potrace 1.10, written by Peter Selinger 2001-2011
</metadata>
<g transform="translate(0.000000,22.000000) scale(0.100000,-0.100000)"
fill="#000000" stroke="none">
<path d="M16 188 c-12 -19 -13 -37 -6 -96 5 -40 12 -77 15 -83 8 -12 162 -12
169 0 3 5 10 41 16 81 9 61 8 77 -5 96 -14 22 -23 24 -95 24 -71 0 -81 -2 -94
-22z m184 -7 c20 -38 13 -41 -90 -41 -103 0 -110 3 -90 41 9 16 22 19 90 19
68 0 81 -3 90 -19z m-63 -63 c6 -1 9 -8 6 -15 -7 -17 -49 -12 -45 5 3 17 -29
0 -48 -25 -8 -10 -10 -15 -6 -11 5 5 14 -2 20 -15 13 -26 60 -38 50 -13 -4 11
-1 16 11 16 9 0 13 5 10 10 -3 5 -1 10 4 10 15 0 14 -23 -1 -38 -9 -9 -8 -12
5 -12 9 0 17 6 17 13 0 8 4 7 10 -3 8 -12 10 -9 10 13 0 16 -4 26 -9 23 -13
-8 -21 18 -11 34 7 11 12 11 22 2 10 -8 13 -24 9 -54 l-6 -43 -73 -3 c-80 -3
-78 -5 -85 72 l-5 48 52 -6 c28 -4 56 -7 63 -8z m-42 -38 c3 -5 0 -10 -7 -10
-10 0 -9 -3 2 -10 8 -5 11 -12 8 -15 -11 -11 -28 5 -28 26 0 20 15 26 25 9z"/>
<path d="M30 170 c-10 -19 -8 -20 70 -20 73 0 80 2 80 20 0 18 -7 20 -70 20
-59 0 -71 -3 -80 -20z"/>
</g>
</svg>
