<?xml version="1.0" standalone="no"?>
<!DOCTYPE svg PUBLIC "-//W3C//DTD SVG 20010904//EN"
 "http://www.w3.org/TR/2001/REC-SVG-20010904/DTD/svg10.dtd">
<svg version="1.0" xmlns="http://www.w3.org/2000/svg"
 width="22.000000pt" height="22.000000pt" viewBox="0 0 22.000000 22.000000"
 preserveAspectRatio="xMidYMid meet">
<metadata>
Created by potrace 1.10, written by Peter Selinger 2001-2011
</metadata>
<g transform="translate(0.000000,22.000000) scale(0.100000,-0.100000)"
fill="#000000" stroke="none">
<path d="M63 178 c-42 -43 -42 -44 -36 -100 l6 -56 41 -4 c22 -1 57 -2 77 0
l36 3 6 57 c6 56 6 57 -36 100 -22 23 -44 42 -47 42 -3 0 -25 -19 -47 -42z
m90 -6 c35 -36 36 -39 30 -90 l-6 -52 -58 0 c-59 0 -59 0 -59 30 0 17 5 30 10
30 6 0 10 -11 10 -25 0 -14 5 -25 10 -25 6 0 10 14 10 30 0 26 -4 30 -27 30
-25 0 -26 1 -8 20 10 11 22 17 26 14 5 -3 9 0 9 5 0 19 26 12 50 -14 l23 -25
-26 0 c-35 0 -39 -39 -4 -41 21 -1 21 -1 -3 -9 l-25 -8 28 -1 c23 -1 27 3 28
27 0 15 2 36 4 48 3 14 -6 31 -25 49 -29 28 -43 23 -17 -5 10 -12 9 -12 -6 0
-16 12 -22 9 -50 -18 -28 -27 -32 -38 -30 -74 2 -38 1 -37 -8 11 -9 55 -9 55
28 93 20 21 40 38 43 38 3 0 23 -17 43 -38z m8 -39 c13 -16 12 -17 -3 -4 -10
7 -18 15 -18 17 0 8 8 3 21 -13z"/>
</g>
</svg>
