<?xml version="1.0" standalone="no"?>
<!DOCTYPE svg PUBLIC "-//W3C//DTD SVG 20010904//EN"
 "http://www.w3.org/TR/2001/REC-SVG-20010904/DTD/svg10.dtd">
<svg version="1.0" xmlns="http://www.w3.org/2000/svg"
 width="22.000000pt" height="22.000000pt" viewBox="0 0 22.000000 22.000000"
 preserveAspectRatio="xMidYMid meet">
<metadata>
Created by potrace 1.10, written by Peter Selinger 2001-2011
</metadata>
<g transform="translate(0.000000,22.000000) scale(0.100000,-0.100000)"
fill="#000000" stroke="none">
<path d="M47 183 l-37 -39 40 -39 c37 -36 40 -37 40 -16 0 16 5 22 18 19 27
-5 26 -44 -2 -73 -25 -25 -19 -33 13 -15 13 7 18 20 17 52 -1 39 -3 43 -28 46
-21 2 -28 -1 -28 -13 0 -9 -4 -14 -10 -10 -20 12 3 33 42 37 l40 4 -4 -48 c-3
-48 4 -63 16 -32 15 38 6 83 -20 103 -15 12 -33 21 -40 21 -7 0 -14 9 -16 21
-3 18 -7 16 -41 -18z m61 -21 c27 -9 26 -9 -16 -21 -28 -8 -40 -16 -36 -24 4
-7 -2 -3 -14 7 -17 14 -19 22 -11 32 6 8 16 11 23 7 6 -3 8 -3 4 2 -4 4 -2 15
5 23 11 13 12 13 15 -1 2 -9 15 -20 30 -25z"/>
</g>
</svg>
